<svg viewBox="0 0 1700.5 1201" xmlns="http://www.w3.org/2000/svg"><path d="m77.1 84.2h-38c-6.6 0-12-5.4-12-12v-38c0-6.6 5.4-12 12-12h38c6.6 0 12 5.4 12 12v38c0 6.6-5.4 12-12 12z" fill="none" stroke="#1e1935" stroke-miterlimit="10" stroke-width="3"/><path d="m46.3 43.6h69.3v44.7h-69.3z" fill="none"/><path d="m51.4 60.7h-3.4v-16.5h3.4zm3.3-16.5h6.8c2.4 0 4.4.7 5.9 2.2s2.3 3.5 2.3 6-.8 4.6-2.3 6c-1.5 1.5-3.5 2.2-5.9 2.2h-6.8zm3.4 2.9v10.6h3.4c2.9 0 4.8-1.9 4.8-5.3 0-3.5-1.8-5.3-4.8-5.3z"/><path d="m823 90.5h-315.5c-6.6 0-12-5.4-12-12v-49c0-6.6 5.4-12 12-12h315.5c6.6 0 12 5.4 12 12v49.1c0 6.5-5.4 11.9-12 11.9z" fill="none" stroke="#1e1935" stroke-miterlimit="10" stroke-width="3"/><path d="m548.2 79.3h-26.9c-6.6 0-12-5.4-12-12v-26.9c0-6.6 5.4-12 12-12h26.9c6.6 0 12 5.4 12 12v26.9c0 6.6-5.4 12-12 12zm63.6 0h-26.8c-6.6 0-12-5.4-12-12v-26.9c0-6.6 5.4-12 12-12h26.9c6.6 0 12 5.4 12 12v26.9c-.1 6.6-5.5 12-12.1 12zm65.3 0h-26.9c-6.6 0-12-5.4-12-12v-26.9c0-6.6 5.4-12 12-12h26.9c6.6 0 12 5.4 12 12v26.9c0 6.6-5.4 12-12 12zm64.8 0h-26.9c-6.6 0-12-5.4-12-12v-26.9c0-6.6 5.4-12 12-12h26.9c6.6 0 12 5.4 12 12v26.9c0 6.6-5.4 12-12 12zm65.8.1h-26.9c-6.6 0-12-5.4-12-12v-26.8c0-6.6 5.4-12 12-12h26.9c6.6 0 12 5.4 12 12v26.9c0 6.5-5.4 11.9-12 11.9z" fill="#ddd"/><path d="m466.8 41.4c.4 0 .8.1 1.1.4l10.7 10.7c.3.3.4.7.4 1.1s-.1.8-.4 1.1l-10.7 10.7c-.3.3-.7.4-1.1.4s-.8-.1-1.1-.4-.4-.7-.4-1.1.1-.8.4-1.1l8.1-8.1c1.5-1.5 1.5-1.6 0-3.1l-8.1-8.1c-.3-.3-.4-.7-.4-1.1s.1-.8.4-1.1.7-.3 1.1-.3z" fill="#1e1935"/><path d="m196 54h-87m350 0h-87" style="fill:none;stroke:#1e1935;stroke-width:4;stroke-miterlimit:10;stroke-linecap:round;stroke-linejoin:round;stroke-dasharray:0 8"/><path d="m220 33.6h137.8v38.9h-137.8z" fill="#1e1935" stroke="#1e1935" stroke-miterlimit="10" stroke-width="3"/><path d="m256.1 46.8h-8.1v4h7v3.3h-7v4.5h8.1v3.4h-11.9v-18.6h11.9zm23.5 15.2h-3.8v-10l-5.1 9.8h-2.5l-5.1-9.8v10h-3.8v-18.6h3.4l6.8 12.8 6.8-12.8h3.4v18.6zm3.7-18.6h7.8c3.5 0 5.8 1.8 5.8 5.2 0 1.6-.6 2.8-1.8 3.6 1.5.6 2.6 2.1 2.6 4.3 0 3.5-2.4 5.4-6 5.4h-8.3v-18.5zm3.8 3.4v4.1h3.7c1.4 0 2.1-.7 2.1-2 0-1.4-.9-2.1-2.3-2.1zm0 7.3v4.5h4c1.7 0 2.5-.7 2.5-2.2s-1-2.3-2.5-2.3zm25.6-7.3h-8.1v4h7v3.3h-7v4.5h8.1v3.4h-11.9v-18.6h11.9zm3.1-3.4h7.6c2.7 0 4.9.8 6.6 2.5s2.6 3.9 2.6 6.8-.9 5.1-2.6 6.8-3.9 2.5-6.6 2.5h-7.6zm3.8 3.3v12h3.8c3.3 0 5.4-2.1 5.4-6s-2-6-5.4-6z" fill="#fff"/><path d="m77.1 168.2h-38c-6.6 0-12-5.4-12-12v-38c0-6.6 5.4-12 12-12h38c6.6 0 12 5.4 12 12v38c0 6.6-5.4 12-12 12z" fill="none" stroke="#1e1935" stroke-miterlimit="10" stroke-width="3"/><path d="m51.4 144.7h-3.4v-16.5h3.4zm3.3-16.5h6.8c2.4 0 4.4.7 5.9 2.2s2.3 3.5 2.3 6-.8 4.6-2.3 6c-1.5 1.5-3.5 2.2-5.9 2.2h-6.8zm3.4 2.9v10.6h3.4c2.9 0 4.8-1.9 4.8-5.3 0-3.5-1.8-5.3-4.8-5.3z"/><path d="m823 174.5h-315.5c-6.6 0-12-5.4-12-12v-49.1c0-6.6 5.4-12 12-12h315.5c6.6 0 12 5.4 12 12v49.1c0 6.6-5.4 12-12 12z" fill="none" stroke="#1e1935" stroke-miterlimit="10" stroke-width="3"/><path d="m548.2 163.3h-26.9c-6.6 0-12-5.4-12-12v-26.9c0-6.6 5.4-12 12-12h26.9c6.6 0 12 5.4 12 12v26.9c0 6.6-5.4 12-12 12zm63.6 0h-26.8c-6.6 0-12-5.4-12-12v-26.9c0-6.6 5.4-12 12-12h26.9c6.6 0 12 5.4 12 12v26.9c-.1 6.6-5.5 12-12.1 12zm65.3 0h-26.9c-6.6 0-12-5.4-12-12v-26.9c0-6.6 5.4-12 12-12h26.9c6.6 0 12 5.4 12 12v26.9c0 6.6-5.4 12-12 12zm64.8 0h-26.9c-6.6 0-12-5.4-12-12v-26.9c0-6.6 5.4-12 12-12h26.9c6.6 0 12 5.4 12 12v26.9c0 6.6-5.4 12-12 12zm65.8.1h-26.9c-6.6 0-12-5.4-12-12v-26.9c0-6.6 5.4-12 12-12h26.9c6.6 0 12 5.4 12 12v26.9c0 6.6-5.4 12-12 12z" fill="#ddd"/><path d="m466.8 125.4c.4 0 .8.1 1.1.4l10.7 10.7c.3.3.4.7.4 1.1s-.1.8-.4 1.1l-10.7 10.7c-.3.3-.7.4-1.1.4s-.8-.1-1.1-.4-.4-.7-.4-1.1.1-.8.4-1.1l8.1-8.1c1.5-1.5 1.5-1.6 0-3.1l-8.1-8.1c-.3-.3-.4-.7-.4-1.1s.1-.8.4-1.1.7-.3 1.1-.3z" fill="#1e1935"/><path d="m196 138h-87m350 0h-87" style="fill:none;stroke:#1e1935;stroke-width:4;stroke-miterlimit:10;stroke-linecap:round;stroke-linejoin:round;stroke-dasharray:0 8"/><path d="m220 117.6h137.8v38.9h-137.8z" fill="#1e1935" stroke="#1e1935" stroke-miterlimit="10" stroke-width="3"/><path d="m256.1 130.8h-8.1v4h7v3.3h-7v4.5h8.1v3.4h-11.9v-18.6h11.9zm23.5 15.2h-3.8v-10l-5.1 9.8h-2.5l-5.1-9.8v10h-3.8v-18.6h3.4l6.8 12.8 6.8-12.8h3.4v18.6zm3.7-18.6h7.8c3.5 0 5.8 1.8 5.8 5.2 0 1.6-.6 2.8-1.8 3.6 1.5.6 2.6 2.1 2.6 4.3 0 3.5-2.4 5.4-6 5.4h-8.3v-18.5zm3.8 3.4v4.1h3.7c1.4 0 2.1-.7 2.1-2 0-1.4-.9-2.1-2.3-2.1zm0 7.3v4.5h4c1.7 0 2.5-.7 2.5-2.2s-1-2.3-2.5-2.3zm25.6-7.3h-8.1v4h7v3.3h-7v4.5h8.1v3.4h-11.9v-18.6h11.9zm3.1-3.4h7.6c2.7 0 4.9.8 6.6 2.5s2.6 3.9 2.6 6.8-.9 5.1-2.6 6.8-3.9 2.5-6.6 2.5h-7.6zm3.8 3.3v12h3.8c3.3 0 5.4-2.1 5.4-6s-2-6-5.4-6z" fill="#fff"/><path d="m77.1 252.2h-38c-6.6 0-12-5.4-12-12v-38c0-6.6 5.4-12 12-12h38c6.6 0 12 5.4 12 12v38c0 6.6-5.4 12-12 12z" fill="none" stroke="#1e1935" stroke-miterlimit="10" stroke-width="3"/><path d="m51.4 228.7h-3.4v-16.5h3.4zm3.3-16.5h6.8c2.4 0 4.4.7 5.9 2.2s2.3 3.5 2.3 6-.8 4.6-2.3 6c-1.5 1.5-3.5 2.2-5.9 2.2h-6.8zm3.4 2.9v10.6h3.4c2.9 0 4.8-1.9 4.8-5.3 0-3.5-1.8-5.3-4.8-5.3z"/><path d="m1662 82.1h-38c-6.6 0-12-5.4-12-12v-38c0-6.6 5.4-12 12-12h38c6.6 0 12 5.4 12 12v38c0 6.6-5.4 12-12 12z" fill="none" stroke="#1e1935" stroke-miterlimit="10" stroke-width="3"/><path d="m1636.2 58.6h-3.4v-16.4h3.4zm3.3-16.4h6.8c2.4 0 4.4.7 5.9 2.2s2.3 3.5 2.3 6-.8 4.6-2.3 6c-1.5 1.5-3.5 2.2-5.9 2.2h-6.8zm3.4 2.9v10.6h3.4c2.9 0 4.8-1.9 4.8-5.3 0-3.5-1.8-5.3-4.8-5.3z"/><path d="m1662 166.1h-38c-6.6 0-12-5.4-12-12v-38c0-6.6 5.4-12 12-12h38c6.6 0 12 5.4 12 12v38c0 6.6-5.4 12-12 12z" fill="none" stroke="#1e1935" stroke-miterlimit="10" stroke-width="3"/><path d="m1636.2 142.6h-3.4v-16.5h3.4zm3.3-16.4h6.8c2.4 0 4.4.7 5.9 2.2s2.3 3.5 2.3 6-.8 4.6-2.3 6c-1.5 1.5-3.5 2.2-5.9 2.2h-6.8zm3.4 2.9v10.6h3.4c2.9 0 4.8-1.9 4.8-5.3 0-3.5-1.8-5.3-4.8-5.3z"/><path d="m1662 250.1h-38c-6.6 0-12-5.4-12-12v-38c0-6.6 5.4-12 12-12h38c6.6 0 12 5.4 12 12v38c0 6.6-5.4 12-12 12z" fill="none" stroke="#1e1935" stroke-miterlimit="10" stroke-width="3"/><path d="m1636.2 226.6h-3.4v-16.5h3.4zm3.3-16.4h6.8c2.4 0 4.4.7 5.9 2.2s2.3 3.5 2.3 6-.8 4.6-2.3 6c-1.5 1.5-3.5 2.2-5.9 2.2h-6.8zm3.4 2.9v10.6h3.4c2.9 0 4.8-1.9 4.8-5.3 0-3.5-1.8-5.3-4.8-5.3z"/><path d="m823 258.5h-315.5c-6.6 0-12-5.4-12-12v-49.1c0-6.6 5.4-12 12-12h315.5c6.6 0 12 5.4 12 12v49.1c0 6.6-5.4 12-12 12z" fill="none" stroke="#1e1935" stroke-miterlimit="10" stroke-width="3"/><path d="m548.2 247.3h-26.9c-6.6 0-12-5.4-12-12v-26.9c0-6.6 5.4-12 12-12h26.9c6.6 0 12 5.4 12 12v26.9c0 6.6-5.4 12-12 12zm63.6 0h-26.8c-6.6 0-12-5.4-12-12v-26.9c0-6.6 5.4-12 12-12h26.9c6.6 0 12 5.4 12 12v26.9c-.1 6.6-5.5 12-12.1 12zm65.3 0h-26.9c-6.6 0-12-5.4-12-12v-26.9c0-6.6 5.4-12 12-12h26.9c6.6 0 12 5.4 12 12v26.9c0 6.6-5.4 12-12 12zm64.8 0h-26.9c-6.6 0-12-5.4-12-12v-26.9c0-6.6 5.4-12 12-12h26.9c6.6 0 12 5.4 12 12v26.9c0 6.6-5.4 12-12 12zm65.8.1h-26.9c-6.6 0-12-5.4-12-12v-26.9c0-6.6 5.4-12 12-12h26.9c6.6 0 12 5.4 12 12v26.9c0 6.6-5.4 12-12 12z" fill="#ddd"/><path d="m466.8 209.4c.4 0 .8.1 1.1.4l10.7 10.7c.3.3.4.7.4 1.1s-.1.8-.4 1.1l-10.7 10.7c-.3.3-.7.4-1.1.4s-.8-.1-1.1-.4-.4-.7-.4-1.1.1-.8.4-1.1l8.1-8.1c1.5-1.5 1.5-1.6 0-3.1l-8.1-8.1c-.3-.3-.4-.7-.4-1.1s.1-.8.4-1.1c.3-.2.7-.3 1.1-.3z" fill="#1e1935"/><path d="m196 222h-87m350 0h-87" style="fill:none;stroke:#1e1935;stroke-width:4;stroke-miterlimit:10;stroke-linecap:round;stroke-linejoin:round;stroke-dasharray:0 8"/><path d="m220 201.6h137.8v38.9h-137.8z" fill="#1e1935" stroke="#1e1935" stroke-miterlimit="10" stroke-width="3"/><path d="m256.1 214.8h-8.1v4h7v3.3h-7v4.5h8.1v3.4h-11.9v-18.6h11.9zm23.5 15.2h-3.8v-10l-5.1 9.8h-2.5l-5.1-9.8v10h-3.8v-18.6h3.4l6.8 12.8 6.8-12.8h3.4v18.6zm3.7-18.6h7.8c3.5 0 5.8 1.8 5.8 5.2 0 1.6-.6 2.8-1.8 3.6 1.5.6 2.6 2.1 2.6 4.3 0 3.5-2.4 5.4-6 5.4h-8.3v-18.5zm3.8 3.4v4.1h3.7c1.4 0 2.1-.7 2.1-2 0-1.4-.9-2.1-2.3-2.1zm0 7.3v4.5h4c1.7 0 2.5-.7 2.5-2.2s-1-2.3-2.5-2.3zm25.6-7.3h-8.1v4h7v3.3h-7v4.5h8.1v3.4h-11.9v-18.6h11.9zm3.1-3.4h7.6c2.7 0 4.9.8 6.6 2.5s2.6 3.9 2.6 6.8-.9 5.1-2.6 6.8-3.9 2.5-6.6 2.5h-7.6zm3.8 3.3v12h3.8c3.3 0 5.4-2.1 5.4-6s-2-6-5.4-6z" fill="#fff"/><path d="m1239.1 236.3c-.4 0-.8-.1-1.1-.4l-10.7-10.7c-.3-.3-.4-.7-.4-1.1s.1-.8.4-1.1l10.7-10.7c.3-.3.7-.4 1.1-.4s.8.1 1.1.4.4.7.4 1.1-.1.8-.4 1.1l-8.1 8.1c-1.5 1.5-1.5 1.6 0 3.1l8.1 8.1c.3.3.4.7.4 1.1s-.1.8-.4 1.1-.7.3-1.1.3z" fill="#1e1935"/><path d="m1328 56h-87m350 0h-87" style="fill:none;stroke:#1e1935;stroke-width:4;stroke-miterlimit:10;stroke-linecap:round;stroke-linejoin:round;stroke-dasharray:0 8"/><path d="m1352 35.6h137.8v38.9h-137.8z" fill="#1e1935" stroke="#1e1935" stroke-miterlimit="10" stroke-width="3"/><path d="m1388.1 48.8h-8.1v4h7v3.3h-7v4.5h8.1v3.4h-11.9v-18.6h11.9zm23.5 15.2h-3.8v-10l-5.1 9.8h-2.5l-5.1-9.8v10h-3.8v-18.6h3.4l6.8 12.8 6.8-12.8h3.4v18.6zm3.7-18.6h7.8c3.5 0 5.8 1.8 5.8 5.2 0 1.6-.6 2.8-1.8 3.6 1.5.6 2.6 2.1 2.6 4.3 0 3.5-2.4 5.4-6 5.4h-8.3v-18.5zm3.8 3.4v4.1h3.7c1.4 0 2.1-.7 2.1-2 0-1.4-.9-2.1-2.3-2.1zm0 7.3v4.5h4c1.7 0 2.5-.7 2.5-2.2s-1-2.3-2.5-2.3zm25.6-7.3h-8.1v4h7v3.3h-7v4.5h8.1v3.4h-11.9v-18.6h11.9zm3.1-3.4h7.6c2.7 0 4.9.8 6.6 2.5s2.6 3.9 2.6 6.8-.9 5.1-2.6 6.8-3.9 2.5-6.7 2.5h-7.6v-18.6zm3.8 3.3v12h3.8c3.3 0 5.4-2.1 5.4-6s-2-6-5.4-6z" fill="#fff"/><path d="m1239.1 152.3c-.4 0-.8-.1-1.1-.4l-10.7-10.7c-.3-.3-.4-.7-.4-1.1s.1-.8.4-1.1l10.7-10.7c.3-.3.7-.4 1.1-.4s.8.1 1.1.4.4.7.4 1.1-.1.8-.4 1.1l-8.1 8.1c-1.5 1.5-1.5 1.6 0 3.1l8.1 8.1c.3.3.4.7.4 1.1s-.1.8-.4 1.1-.7.3-1.1.3z" fill="#1e1935"/><path d="m1328 140h-87m350 0h-87" style="fill:none;stroke:#1e1935;stroke-width:4;stroke-miterlimit:10;stroke-linecap:round;stroke-linejoin:round;stroke-dasharray:0 8"/><path d="m1352 119.6h137.8v38.9h-137.8z" fill="#1e1935" stroke="#1e1935" stroke-miterlimit="10" stroke-width="3"/><path d="m1388.1 132.8h-8.1v4h7v3.3h-7v4.5h8.1v3.4h-11.9v-18.6h11.9zm23.5 15.2h-3.8v-10l-5.1 9.8h-2.5l-5.1-9.8v10h-3.8v-18.6h3.4l6.8 12.8 6.8-12.8h3.4v18.6zm3.7-18.6h7.8c3.5 0 5.8 1.8 5.8 5.2 0 1.6-.6 2.8-1.8 3.6 1.5.6 2.6 2.1 2.6 4.3 0 3.5-2.4 5.4-6 5.4h-8.3v-18.5zm3.8 3.4v4.1h3.7c1.4 0 2.1-.7 2.1-2 0-1.4-.9-2.1-2.3-2.1zm0 7.3v4.5h4c1.7 0 2.5-.7 2.5-2.2s-1-2.3-2.5-2.3zm25.6-7.3h-8.1v4h7v3.3h-7v4.5h8.1v3.4h-11.9v-18.6h11.9zm3.1-3.4h7.6c2.7 0 4.9.8 6.6 2.5s2.6 3.9 2.6 6.8-.9 5.1-2.6 6.8-3.9 2.5-6.7 2.5h-7.6v-18.6zm3.8 3.3v12h3.8c3.3 0 5.4-2.1 5.4-6s-2-6-5.4-6z" fill="#fff"/><path d="m1239.1 68.3c-.4 0-.8-.1-1.1-.4l-10.7-10.7c-.3-.3-.4-.7-.4-1.1s.1-.8.4-1.1l10.7-10.7c.3-.3.7-.4 1.1-.4s.8.1 1.1.4.4.7.4 1.1-.1.8-.4 1.1l-8.1 8.1c-1.5 1.5-1.5 1.6 0 3.1l8.1 8.1c.3.3.4.7.4 1.1s-.1.8-.4 1.1-.7.3-1.1.3z" fill="#1e1935"/><path d="m1328 224h-87m350 0h-87" style="fill:none;stroke:#1e1935;stroke-width:4;stroke-miterlimit:10;stroke-linecap:round;stroke-linejoin:round;stroke-dasharray:0 8"/><path d="m1352 203.6h137.8v38.9h-137.8z" fill="#1e1935" stroke="#1e1935" stroke-miterlimit="10" stroke-width="3"/><path d="m1388.1 216.8h-8.1v4h7v3.3h-7v4.5h8.1v3.4h-11.9v-18.6h11.9zm23.5 15.2h-3.8v-10l-5.1 9.8h-2.5l-5.1-9.8v10h-3.8v-18.6h3.4l6.8 12.8 6.8-12.8h3.4v18.6zm3.7-18.6h7.8c3.5 0 5.8 1.8 5.8 5.2 0 1.6-.6 2.8-1.8 3.6 1.5.6 2.6 2.1 2.6 4.3 0 3.5-2.4 5.4-6 5.4h-8.3v-18.5zm3.8 3.4v4.1h3.7c1.4 0 2.1-.7 2.1-2 0-1.4-.9-2.1-2.3-2.1zm0 7.3v4.5h4c1.7 0 2.5-.7 2.5-2.2s-1-2.3-2.5-2.3zm25.6-7.3h-8.1v4h7v3.3h-7v4.5h8.1v3.4h-11.9v-18.6h11.9zm3.1-3.4h7.6c2.7 0 4.9.8 6.6 2.5s2.6 3.9 2.6 6.8-.9 5.1-2.6 6.8-3.9 2.5-6.7 2.5h-7.6v-18.6zm3.8 3.3v12h3.8c3.3 0 5.4-2.1 5.4-6s-2-6-5.4-6z" fill="#fff"/><path d="m813.3 651.4h-299.3c-6.6 0-12-5.4-12-12v-220.7c0-6.6 5.4-12 12-12h299.3c6.6 0 12 5.4 12 12v220.7c0 6.6-5.4 12-12 12z" fill="none" stroke="#1e1935" stroke-miterlimit="10" stroke-width="3"/><path d="m568.1 482.6h-37.1c-6.6 0-12-5.4-12-12v-37.1c0-6.6 5.4-12 12-12h37.1c6.6 0 12 5.4 12 12v37.1c0 6.6-5.4 12-12 12zm0 76.5h-37.1c-6.6 0-12-5.4-12-12v-37.1c0-6.6 5.4-12 12-12h37.1c6.6 0 12 5.4 12 12v37.1c0 6.6-5.4 12-12 12zm3.2 75.5h-37.1c-6.6 0-12-5.4-12-12v-37.1c0-6.6 5.4-12 12-12h37.1c6.6 0 12 5.4 12 12v37.1c0 6.6-5.4 12-12 12zm73.2-75.5h-37.1c-6.6 0-12-5.4-12-12v-37.1c0-6.6 5.4-12 12-12h37.1c6.6 0 12 5.4 12 12v37.1c0 6.6-5.4 12-12 12zm0 75.5h-37.1c-6.6 0-12-5.4-12-12v-37.1c0-6.6 5.4-12 12-12h37.1c6.6 0 12 5.4 12 12v37.1c0 6.6-5.4 12-12 12zm75.1-75.5h-37.1c-6.6 0-12-5.4-12-12v-37.1c0-6.6 5.4-12 12-12h37.1c6.6 0 12 5.4 12 12v37.1c0 6.6-5.4 12-12 12zm0 75.5h-37.1c-6.6 0-12-5.4-12-12v-37.1c0-6.6 5.4-12 12-12h37.1c6.6 0 12 5.4 12 12v37.1c0 6.6-5.4 12-12 12zm-75.1-152h-37.1c-6.6 0-12-5.4-12-12v-37.1c0-6.6 5.4-12 12-12h37.1c6.6 0 12 5.4 12 12v37.1c0 6.6-5.4 12-12 12zm75.1 0h-37.1c-6.6 0-12-5.4-12-12v-37.1c0-6.6 5.4-12 12-12h37.1c6.6 0 12 5.4 12 12v37.1c0 6.6-5.4 12-12 12zm77.1 77h-37.1c-6.6 0-12-5.4-12-12v-37.1c0-6.6 5.4-12 12-12h37.1c6.6 0 12 5.4 12 12v37.1c0 6.6-5.4 12-12 12zm0 75.5h-37.1c-6.6 0-12-5.4-12-12v-37.1c0-6.6 5.4-12 12-12h37.1c6.6 0 12 5.4 12 12v37.1c0 6.6-5.4 12-12 12zm0-152h-37.1c-6.6 0-12-5.4-12-12v-37.1c0-6.6 5.4-12 12-12h37.1c6.6 0 12 5.4 12 12v37.1c0 6.6-5.4 12-12 12z" fill="#9c9ac1"/><path d="m674.8 377.3c0 .4-.1.8-.4 1.1l-10.7 10.7c-.3.3-.7.4-1.1.4s-.8-.1-1.1-.4l-10.7-10.7c-.3-.3-.4-.7-.4-1.1s.1-.8.4-1.1.7-.4 1.1-.4.8.1 1.1.4l8.1 8.1c1.5 1.5 1.6 1.5 3.1 0l8.1-8.1c.3-.3.7-.4 1.1-.4s.8.1 1.1.4c.2.3.3.7.3 1.1z" fill="#1e1935"/><path d="m663 373v-20m0-62v-20" style="fill:none;stroke:#1e1935;stroke-width:4;stroke-miterlimit:10;stroke-linecap:round;stroke-linejoin:round;stroke-dasharray:0 8"/><path d="m598.2 304.6h137.8v38.9h-137.8z" fill="#1e1935" stroke="#1e1935" stroke-miterlimit="10" stroke-width="3"/><path d="m624.5 317.8h-8.1v4h7v3.3h-7v4.5h8.1v3.4h-11.9v-18.6h11.9zm18.3 15.2h-3.2l-8.1-11.5v11.5h-3.8v-18.6h3.3l8.2 11.5v-11.5h3.8v18.6zm18.3-16.9c1.6 1.3 2.6 3 3 5.2l-4 .3c-.5-2.6-2.4-4-4.9-4-1.6 0-3 .6-3.9 1.7-1 1.1-1.5 2.6-1.5 4.5 0 2 .5 3.5 1.5 4.5 1 1.1 2.3 1.6 3.9 1.6 2.6 0 4.4-1.4 4.9-3.9l4 .3c-.3 2.2-1.3 3.8-3 5.1-1.6 1.3-3.6 1.9-5.9 1.9-2.8 0-5.1-.9-6.8-2.6s-2.6-4-2.6-7 .9-5.3 2.6-7 4-2.6 6.8-2.6c2.4 0 4.3.7 5.9 2zm21.8.7c1.8 1.7 2.7 4 2.7 6.9s-.9 5.2-2.7 6.9-4.1 2.6-6.9 2.6-5.1-.9-6.9-2.6c-1.8-1.8-2.7-4.1-2.7-6.9s.9-5.2 2.7-6.9c1.8-1.8 4.1-2.6 6.9-2.6 2.8-.1 5.1.8 6.9 2.6zm-11.1 2.4c-1.1 1.1-1.6 2.6-1.6 4.5s.5 3.4 1.6 4.5 2.5 1.7 4.2 1.7 3.1-.5 4.1-1.7c1.1-1.1 1.6-2.6 1.6-4.5s-.5-3.4-1.6-4.5c-1-1.1-2.4-1.7-4.1-1.7s-3.1.6-4.2 1.7zm16.9-4.8h7.6c2.7 0 4.9.8 6.6 2.5s2.6 3.9 2.6 6.8-.9 5.1-2.6 6.8-3.9 2.5-6.6 2.5h-7.6zm3.8 3.3v12h3.8c3.3 0 5.4-2.1 5.4-6s-2-6-5.4-6zm28 .1h-8.1v4h7v3.3h-7v4.5h8.1v3.4h-11.9v-18.6h11.9z" fill="#fff"/><path d="m858.8 806.3c0 .4-.1.8-.4 1.1l-10.7 10.7c-.3.3-.7.4-1.1.4s-.8-.1-1.1-.4l-10.7-10.7c-.3-.3-.4-.7-.4-1.1s.1-.8.4-1.1.7-.4 1.1-.4.8.1 1.1.4l8.1 8.1c1.5 1.5 1.6 1.5 3.1 0l8.1-8.1c.3-.3.7-.4 1.1-.4s.8.1 1.1.4c.2.3.3.7.3 1.1z" fill="#1e1935"/><path d="m847 801v-30m0-60v-38" style="fill:none;stroke:#1e1935;stroke-width:4;stroke-miterlimit:10;stroke-linecap:round;stroke-linejoin:round;stroke-dasharray:0 8"/><path d="m782.2 725.6h137.8v38.9h-137.8z" fill="#1e1935" stroke="#1e1935" stroke-miterlimit="10" stroke-width="3"/><path d="m817.1 754h-4.2l-1.5-3.6h-7.7l-1.5 3.6h-4.2l8-18.6h3.2zm-12-6.7h5l-2.5-5.9zm25.4-8.5h-6.2v15.2h-3.8v-15.2h-6.2v-3.4h16.3v3.4zm17.9 0h-6.2v15.2h-3.8v-15.2h-6.2v-3.4h16.3v3.4zm14.2 0h-8.1v4h7v3.3h-7v4.5h8.1v3.4h-11.9v-18.6h11.9zm18.3 15.2h-3.2l-8.1-11.5v11.5h-3.8v-18.6h3.3l8.2 11.5v-11.5h3.8v18.6zm3.7-18.6h7.6c2.7 0 4.9.8 6.6 2.5s2.6 3.9 2.6 6.8-.9 5.1-2.6 6.8-3.9 2.5-6.6 2.5h-7.6zm3.8 3.3v12h3.8c3.3 0 5.4-2.1 5.4-6s-2-6-5.4-6z" fill="#fff"/><path d="m860.8 1050.3c0 .4-.1.8-.4 1.1l-10.7 10.7c-.3.3-.7.4-1.1.4s-.8-.1-1.1-.4l-10.7-10.7c-.3-.3-.4-.7-.4-1.1s.1-.8.4-1.1.7-.4 1.1-.4.8.1 1.1.4l8.1 8.1c1.5 1.5 1.6 1.5 3.1 0l8.1-8.1c.3-.3.7-.4 1.1-.4s.8.1 1.1.4.3.7.3 1.1z" fill="#1e1935"/><path d="m849 1045v-30m0-60v-38" style="fill:none;stroke:#1e1935;stroke-width:4;stroke-miterlimit:10;stroke-linecap:round;stroke-linejoin:round;stroke-dasharray:0 8"/><path d="m784.2 969.6h137.8v38.9h-137.8z" fill="#1e1935" stroke="#1e1935" stroke-miterlimit="10" stroke-width="3"/><path d="m797 979.4h8c1.8 0 3.2.5 4.3 1.6s1.6 2.5 1.6 4.4-.5 3.3-1.6 4.4-2.5 1.6-4.3 1.6h-4.2v6.6h-3.8zm3.8 3.4v5.2h3.7c1.5 0 2.6-.9 2.6-2.6s-1.1-2.6-2.6-2.6zm23.3 15.2-3.6-6.7h-3.1v6.7h-3.8v-18.6h7.9c1.8 0 3.3.5 4.3 1.6 1.1 1 1.6 2.5 1.6 4.4 0 2.6-1.1 4.4-3 5.3l3.9 7.3zm-6.7-10.1h3.6c1.5 0 2.6-.9 2.6-2.5 0-1.7-1-2.6-2.6-2.6h-3.6zm25.6-5.1h-8.1v4h7v3.3h-7v4.5h8.1v3.4h-11.9v-18.6h11.9zm3-3.4h7.6c2.7 0 4.9.8 6.6 2.5s2.6 3.9 2.6 6.8-.9 5.1-2.6 6.8-3.9 2.5-6.6 2.5h-7.6zm3.8 3.3v12h3.8c3.3 0 5.4-2.1 5.4-6s-2-6-5.4-6zm20 15.3h-3.8v-18.6h3.8zm18.3-16.9c1.6 1.3 2.6 3 3 5.2l-4 .3c-.5-2.6-2.4-4-4.9-4-1.6 0-3 .6-3.9 1.7-1 1.1-1.5 2.6-1.5 4.5 0 2 .5 3.5 1.5 4.5 1 1.1 2.3 1.6 3.9 1.6 2.6 0 4.4-1.4 4.9-3.9l4 .3c-.3 2.2-1.3 3.8-3 5.1-1.6 1.3-3.6 1.9-5.9 1.9-2.8 0-5.1-.9-6.8-2.6s-2.6-4-2.6-7 .9-5.3 2.6-7 4-2.6 6.8-2.6c2.4 0 4.3.7 5.9 2zm20.7 1.7h-6.2v15.2h-3.8v-15.2h-6.2v-3.4h16.3v3.4z" fill="#fff"/><path d="m1189 91.5h-315.5c-6.6 0-12-5.4-12-12v-49c0-6.6 5.4-12 12-12h315.5c6.6 0 12 5.4 12 12v49.1c0 6.5-5.4 11.9-12 11.9z" fill="none" stroke="#1e1935" stroke-miterlimit="10" stroke-width="3"/><path d="m914.2 80.3h-26.9c-6.6 0-12-5.4-12-12v-26.9c0-6.6 5.4-12 12-12h26.9c6.6 0 12 5.4 12 12v26.9c0 6.6-5.4 12-12 12zm63.6 0h-26.8c-6.6 0-12-5.4-12-12v-26.9c0-6.6 5.4-12 12-12h26.9c6.6 0 12 5.4 12 12v26.9c-.1 6.6-5.5 12-12.1 12zm65.3 0h-26.9c-6.6 0-12-5.4-12-12v-26.9c0-6.6 5.4-12 12-12h26.9c6.6 0 12 5.4 12 12v26.9c0 6.6-5.4 12-12 12zm64.8 0h-26.9c-6.6 0-12-5.4-12-12v-26.9c0-6.6 5.4-12 12-12h26.9c6.6 0 12 5.4 12 12v26.9c0 6.6-5.4 12-12 12zm65.8.1h-26.9c-6.6 0-12-5.4-12-12v-26.8c0-6.6 5.4-12 12-12h26.9c6.6 0 12 5.4 12 12v26.9c0 6.5-5.4 11.9-12 11.9z" fill="#ddd"/><path d="m1190 175.5h-315.5c-9.3 0-12-5.4-12-12v-49.1c0-6.6 5.4-12 12-12h315.5c6.6 0 12 5.4 12 12v49.1c0 6.6-5.4 12-12 12z" fill="none" stroke="#1e1935" stroke-miterlimit="10" stroke-width="3"/><path d="m914.2 164.3h-26.9c-6.6 0-12-5.4-12-12v-26.9c0-6.6 5.4-12 12-12h26.9c6.6 0 12 5.4 12 12v26.9c0 6.6-5.4 12-12 12zm63.6 0h-26.8c-6.6 0-12-5.4-12-12v-26.9c0-6.6 5.4-12 12-12h26.9c6.6 0 12 5.4 12 12v26.9c-.1 6.6-5.5 12-12.1 12zm65.3 0h-26.9c-6.6 0-12-5.4-12-12v-26.9c0-6.6 5.4-12 12-12h26.9c6.6 0 12 5.4 12 12v26.9c0 6.6-5.4 12-12 12zm64.8 0h-26.9c-6.6 0-12-5.4-12-12v-26.9c0-6.6 5.4-12 12-12h26.9c6.6 0 12 5.4 12 12v26.9c0 6.6-5.4 12-12 12zm65.8.1h-26.9c-6.6 0-12-5.4-12-12v-26.9c0-6.6 5.4-12 12-12h26.9c6.6 0 12 5.4 12 12v26.9c0 6.6-5.4 12-12 12z" fill="#ddd"/><path d="m1189 259.5h-315.5c-6.6 0-12-5.4-13-12v-49.1c1-6.6 6.4-12 13-12h315.5c6.6 0 12 5.4 12 12v49.1c0 6.6-5.4 12-12 12z" fill="none" stroke="#1e1935" stroke-miterlimit="10" stroke-width="3"/><path d="m914.2 248.3h-26.9c-6.6 0-12-5.4-12-12v-26.9c0-6.6 5.4-12 12-12h26.9c6.6 0 12 5.4 12 12v26.9c0 6.6-5.4 12-12 12zm63.6 0h-26.8c-6.6 0-12-5.4-12-12v-26.9c0-6.6 5.4-12 12-12h26.9c6.6 0 12 5.4 12 12v26.9c-.1 6.6-5.5 12-12.1 12zm65.3 0h-26.9c-6.6 0-12-5.4-12-12v-26.9c0-6.6 5.4-12 12-12h26.9c6.6 0 12 5.4 12 12v26.9c0 6.6-5.4 12-12 12zm64.8 0h-26.9c-6.6 0-12-5.4-12-12v-26.9c0-6.6 5.4-12 12-12h26.9c6.6 0 12 5.4 12 12v26.9c0 6.6-5.4 12-12 12zm65.8.1h-26.9c-6.6 0-12-5.4-12-12v-26.9c0-6.6 5.4-12 12-12h26.9c6.6 0 12 5.4 12 12v26.9c0 6.6-5.4 12-12 12z" fill="#ddd"/><path d="m1179.3 652.4h-299.3c-6.6 0-12-5.4-12-12v-220.7c0-6.6 5.4-12 12-12h299.3c6.6 0 12 5.4 12 12v220.7c0 6.6-5.4 12-12 12z" fill="none" stroke="#1e1935" stroke-miterlimit="10" stroke-width="3"/><path d="m934.1 483.6h-37.1c-6.6 0-12-5.4-12-12v-37.1c0-6.6 5.4-12 12-12h37.1c6.6 0 12 5.4 12 12v37.1c0 6.6-5.4 12-12 12zm0 76.5h-37.1c-6.6 0-12-5.4-12-12v-37.1c0-6.6 5.4-12 12-12h37.1c6.6 0 12 5.4 12 12v37.1c0 6.6-5.4 12-12 12zm3.2 75.5h-37.1c-6.6 0-12-5.4-12-12v-37.1c0-6.6 5.4-12 12-12h37.1c6.6 0 12 5.4 12 12v37.1c0 6.6-5.4 12-12 12zm73.2-75.5h-37.1c-6.6 0-12-5.4-12-12v-37.1c0-6.6 5.4-12 12-12h37.1c6.6 0 12 5.4 12 12v37.1c0 6.6-5.4 12-12 12zm0 75.5h-37.1c-6.6 0-12-5.4-12-12v-37.1c0-6.6 5.4-12 12-12h37.1c6.6 0 12 5.4 12 12v37.1c0 6.6-5.4 12-12 12zm75.1-75.5h-37.1c-6.6 0-12-5.4-12-12v-37.1c0-6.6 5.4-12 12-12h37.1c6.6 0 12 5.4 12 12v37.1c0 6.6-5.4 12-12 12zm0 75.5h-37.1c-6.6 0-12-5.4-12-12v-37.1c0-6.6 5.4-12 12-12h37.1c6.6 0 12 5.4 12 12v37.1c0 6.6-5.4 12-12 12zm-75.1-152h-37.1c-6.6 0-12-5.4-12-12v-37.1c0-6.6 5.4-12 12-12h37.1c6.6 0 12 5.4 12 12v37.1c0 6.6-5.4 12-12 12zm75.1 0h-37.1c-6.6 0-12-5.4-12-12v-37.1c0-6.6 5.4-12 12-12h37.1c6.6 0 12 5.4 12 12v37.1c0 6.6-5.4 12-12 12zm77.1 77h-37.1c-6.6 0-12-5.4-12-12v-37.1c0-6.6 5.4-12 12-12h37.1c6.6 0 12 5.4 12 12v37.1c0 6.6-5.4 12-12 12zm0 75.5h-37.1c-6.6 0-12-5.4-12-12v-37.1c0-6.6 5.4-12 12-12h37.1c6.6 0 12 5.4 12 12v37.1c0 6.6-5.4 12-12 12zm0-152h-37.1c-6.6 0-12-5.4-12-12v-37.1c0-6.6 5.4-12 12-12h37.1c6.6 0 12 5.4 12 12v37.1c0 6.6-5.4 12-12 12z" fill="#9c9ac1"/><path d="m1040.8 378.3c0 .4-.1.8-.4 1.1l-10.7 10.7c-.3.3-.7.4-1.1.4s-.8-.1-1.1-.4l-10.7-10.7c-.3-.3-.4-.7-.4-1.1s.1-.8.4-1.1.7-.4 1.1-.4.8.1 1.1.4l8.1 8.1c1.5 1.5 1.6 1.5 3.1 0l8.1-8.1c.3-.3.7-.4 1.1-.4s.8.1 1.1.4c.2.3.3.7.3 1.1z" fill="#1e1935"/><path d="m1029 374v-20m0-62v-20" style="fill:none;stroke:#1e1935;stroke-width:4;stroke-miterlimit:10;stroke-linecap:round;stroke-linejoin:round;stroke-dasharray:0 8"/><path d="m964.2 305.6h137.8v38.9h-137.8z" fill="#1e1935" stroke="#1e1935" stroke-miterlimit="10" stroke-width="3"/><path d="m990.5 318.8h-8.1v4h7v3.3h-7v4.5h8.1v3.4h-11.9v-18.6h11.9zm18.3 15.2h-3.2l-8.1-11.5v11.5h-3.8v-18.6h3.3l8.2 11.5v-11.5h3.8v18.6zm18.3-16.9c1.6 1.3 2.6 3 3 5.2l-4 .3c-.5-2.6-2.4-4-4.9-4-1.6 0-3 .6-3.9 1.7-1 1.1-1.5 2.6-1.5 4.5 0 2 .5 3.5 1.5 4.5 1 1.1 2.3 1.6 3.9 1.6 2.6 0 4.4-1.4 4.9-3.9l4 .3c-.3 2.2-1.3 3.8-3 5.1-1.6 1.3-3.6 1.9-5.9 1.9-2.8 0-5.1-.9-6.8-2.6s-2.6-4-2.6-7 .9-5.3 2.6-7 4-2.6 6.8-2.6c2.4 0 4.3.7 5.9 2zm21.8.7c1.8 1.7 2.7 4 2.7 6.9s-.9 5.2-2.7 6.9-4.1 2.6-6.9 2.6-5.1-.9-6.9-2.6c-1.8-1.8-2.7-4.1-2.7-6.9s.9-5.2 2.7-6.9c1.8-1.8 4.1-2.6 6.9-2.6 2.8-.1 5.1.8 6.9 2.6zm-11.1 2.4c-1.1 1.1-1.6 2.6-1.6 4.5s.5 3.4 1.6 4.5 2.5 1.7 4.2 1.7 3.1-.5 4.1-1.7c1.1-1.1 1.6-2.6 1.6-4.5s-.5-3.4-1.6-4.5c-1-1.1-2.4-1.7-4.1-1.7s-3.1.6-4.2 1.7zm16.9-4.8h7.6c2.7 0 4.9.8 6.6 2.5s2.6 3.9 2.6 6.8-.9 5.1-2.6 6.8-3.9 2.5-6.6 2.5h-7.6zm3.8 3.3v12h3.8c3.3 0 5.4-2.1 5.4-6s-2-6-5.4-6zm28 .1h-8.1v4h7v3.3h-7v4.5h8.1v3.4h-11.9v-18.6h11.9z" fill="#fff"/><path d="m1040.3 895.6h-397.9c-6.6 0-12-5.4-12-12v-35.6c0-6.6 5.4-12 12-12h397.9c6.6 0 12 5.4 12 12v35.6c0 6.6-5.4 12-12 12z" fill="none" stroke="#1e1935" stroke-miterlimit="10" stroke-width="3"/><path d="m670.4 886.5h-17.5c-6.6 0-12-5.4-12-12v-17.5c0-6.6 5.4-12 12-12h17.5c6.6 0 12 5.4 12 12v17.5c0 6.6-5.4 12-12 12zm51.9 0h-17.5c-6.6 0-12-5.4-12-12v-17.5c0-6.6 5.4-12 12-12h17.5c6.6 0 12 5.4 12 12v17.5c0 6.6-5.4 12-12 12zm53.3 0h-17.6c-6.6 0-12-5.4-12-12v-17.5c0-6.6 5.4-12 12-12h17.5c6.6 0 12 5.4 12 12v17.5c.1 6.6-5.3 12-11.9 12zm52.9 0h-17.5c-6.6 0-12-5.4-12-12v-17.5c0-6.6 5.4-12 12-12h17.5c6.6 0 12 5.4 12 12v17.5c0 6.6-5.4 12-12 12zm50-.6h-17.5c-6.6 0-12-5.4-12-12v-17.5c0-6.6 5.4-12 12-12h17.5c6.6 0 12 5.4 12 12v17.5c0 6.6-5.4 12-12 12zm51.7.6h-17.5c-6.6 0-12-5.4-12-12v-17.5c0-6.6 5.4-12 12-12h17.5c6.6 0 12 5.4 12 12v17.5c0 6.6-5.4 12-12 12zm49 .1h-17.5c-6.6 0-12-5.4-12-12v-17.6c0-6.6 5.4-12 12-12h17.5c6.6 0 12 5.4 12 12v17.5c0 6.7-5.4 12.1-12 12.1zm50.5-.7h-17.5c-6.6 0-12-5.4-12-12v-17.5c0-6.6 5.4-12 12-12h17.5c6.6 0 12 5.4 12 12v17.5c0 6.6-5.4 12-12 12z" fill="#3e3565"/><path d="m868.7 1153.3h-38c-6.6 0-12-5.4-12-12v-38c0-6.6 5.4-12 12-12h38c6.6 0 12 5.4 12 12v38c0 6.6-5.4 12-12 12z" fill="none" stroke="#1e1935" stroke-miterlimit="10" stroke-width="3"/><path d="m842.9 1129.8h-3.4v-16.5h3.4zm3.3-16.4h6.8c2.4 0 4.4.7 5.9 2.2s2.3 3.5 2.3 6-.8 4.6-2.3 6c-1.5 1.5-3.5 2.2-5.9 2.2h-6.8zm3.4 2.9v10.6h3.4c2.9 0 4.8-1.9 4.8-5.3 0-3.5-1.8-5.3-4.8-5.3z"/></svg>