<svg viewBox="0 0 1102 358.9" xmlns="http://www.w3.org/2000/svg"><path d="m325 336.7h-299.4c-6.6 0-12-5.4-12-12v-220.7c0-6.6 5.4-12 12-12h299.4c6.6 0 12 5.4 12 12v220.7c0 6.6-5.4 12-12 12z" fill="none" stroke="#1e1935" stroke-miterlimit="10" stroke-width="3"/><path d="m79.8 167.8h-37.1c-6.6 0-12-5.4-12-12v-37.1c0-6.6 5.4-12 12-12h37.1c6.6 0 12 5.4 12 12v37.1c0 6.6-5.4 12-12 12zm0 76.6h-37.1c-6.6 0-12-5.4-12-12v-37.1c0-6.6 5.4-12 12-12h37.1c6.6 0 12 5.4 12 12v37.1c0 6.6-5.4 12-12 12zm3.2 75.5h-37.1c-6.6 0-12-5.4-12-12v-37.1c0-6.6 5.4-12 12-12h37.1c6.6 0 12 5.4 12 12v37.1c0 6.6-5.4 12-12 12zm73.1-75.5h-37.1c-6.6 0-12-5.4-12-12v-37.1c0-6.6 5.4-12 12-12h37.1c6.6 0 12 5.4 12 12v37.1c0 6.6-5.4 12-12 12zm0 75.5h-37.1c-6.6 0-12-5.4-12-12v-37.1c0-6.6 5.4-12 12-12h37.1c6.6 0 12 5.4 12 12v37.1c0 6.6-5.4 12-12 12zm75.2-75.5h-37.1c-6.6 0-12-5.4-12-12v-37.1c0-6.6 5.4-12 12-12h37.1c6.6 0 12 5.4 12 12v37.1c0 6.6-5.4 12-12 12zm0 75.5h-37.1c-6.6 0-12-5.4-12-12v-37.1c0-6.6 5.4-12 12-12h37.1c6.6 0 12 5.4 12 12v37.1c0 6.6-5.4 12-12 12zm-75.2-152.1h-37.1c-6.6 0-12-5.4-12-12v-37.1c0-6.6 5.4-12 12-12h37.1c6.6 0 12 5.4 12 12v37.1c0 6.6-5.4 12-12 12zm75.2 0h-37.1c-6.6 0-12-5.4-12-12v-37.1c0-6.6 5.4-12 12-12h37.1c6.6 0 12 5.4 12 12v37.1c0 6.6-5.4 12-12 12zm77.1 77.1h-37.1c-6.6 0-12-5.4-12-12v-37.1c0-6.6 5.4-12 12-12h37.1c6.6 0 12 5.4 12 12v37.1c0 6.6-5.4 12-12 12zm0 75.5h-37.1c-6.6 0-12-5.4-12-12v-37.1c0-6.6 5.4-12 12-12h37.1c6.6 0 12 5.4 12 12v37.1c0 6.6-5.4 12-12 12zm0-152h-37.1c-6.6 0-12-5.4-12-12v-37.1c0-6.6 5.4-12 12-12h37.1c6.6 0 12 5.4 12 12v37.1c0 6.6-5.4 12-12 12z" fill="#9c9ac1"/><path d="m1073.9 205.4h-298.5c-6.6 0-12-5.4-12-12v-35.6c0-6.6 5.4-12 12-12h298.4c6.6 0 12 5.4 12 12v35.6c.1 6.6-5.3 12-11.9 12z" fill="none" stroke="#1e1935" stroke-miterlimit="10" stroke-width="3"/><path d="m803.4 196.3h-17.5c-6.6 0-12-5.4-12-12v-17.5c0-6.6 5.4-12 12-12h17.5c6.6 0 12 5.4 12 12v17.5c0 6.6-5.4 12-12 12zm51.9 0h-17.5c-6.6 0-12-5.4-12-12v-17.5c0-6.6 5.4-12 12-12h17.5c6.6 0 12 5.4 12 12v17.5c0 6.6-5.4 12-12 12zm53.3 0h-17.5c-6.6 0-12-5.4-12-12v-17.5c0-6.6 5.4-12 12-12h17.5c6.6 0 12 5.4 12 12v17.5c0 6.6-5.4 12-12 12zm52.9 0h-17.5c-6.6 0-12-5.4-12-12v-17.5c0-6.6 5.4-12 12-12h17.5c6.6 0 12 5.4 12 12v17.5c0 6.6-5.4 12-12 12zm50.1-.6h-17.6c-6.6 0-12-5.4-12-12v-17.5c0-6.6 5.4-12 12-12h17.5c6.6 0 12 5.4 12 12v17.5c.1 6.6-5.3 12-11.9 12zm51.6.6h-17.5c-6.6 0-12-5.4-12-12v-17.5c0-6.6 5.4-12 12-12h17.5c6.6 0 12 5.4 12 12v17.5c0 6.6-5.4 12-12 12z" fill="#3e3565"/><path d="m324.5 76.4h-298.4c-6.6 0-12-5.4-12-12v-35.6c0-6.6 5.4-12 12-12h298.4c6.6 0 12 5.4 12 12v35.6c0 6.6-5.4 12-12 12z" fill="none" stroke="#1e1935" stroke-miterlimit="10" stroke-width="3"/><path d="m54.1 67.3h-17.5c-6.6 0-12-5.4-12-12v-17.5c0-6.6 5.4-12 12-12h17.5c6.6 0 12 5.4 12 12v17.5c0 6.6-5.4 12-12 12zm51.9 0h-17.5c-6.6 0-12-5.4-12-12v-17.5c0-6.6 5.4-12 12-12h17.5c6.6 0 12 5.4 12 12v17.5c0 6.6-5.4 12-12 12zm53.3 0h-17.5c-6.6 0-12-5.4-12-12v-17.5c0-6.6 5.4-12 12-12h17.5c6.6 0 12 5.4 12 12v17.5c0 6.6-5.4 12-12 12zm52.9 0h-17.5c-6.6 0-12-5.4-12-12v-17.5c0-6.6 5.4-12 12-12h17.5c6.6 0 12 5.4 12 12v17.5c0 6.6-5.4 12-12 12zm50-.6h-17.5c-6.6 0-12-5.4-12-12v-17.5c0-6.6 5.4-12 12-12h17.5c6.6 0 12 5.4 12 12v17.5c0 6.6-5.4 12-12 12zm51.7.6h-17.5c-6.6 0-12-5.4-12-12v-17.5c0-6.6 5.4-12 12-12h17.5c6.6 0 12 5.4 12 12v17.5c0 6.6-5.4 12-12 12z" fill="#5d549e"/><path d="m721.9 163.2c.4 0 .8.1 1.1.4l10.7 10.7c.3.3.4.7.4 1.1s-.1.8-.4 1.1l-10.7 10.8c-.3.3-.7.4-1.1.4s-.8-.1-1.1-.4-.4-.7-.4-1.1.1-.8.4-1.1l8.1-8.1c1.5-1.5 1.5-1.6 0-3.1l-8.1-8.1c-.3-.3-.4-.7-.4-1.1s.1-.8.4-1.1c.3-.2.6-.4 1.1-.4z" fill="#1e1935"/><path d="m452 175.9h-87m349 0h-87" style="fill:none;stroke:#1e1935;stroke-width:4;stroke-miterlimit:10;stroke-linecap:round;stroke-linejoin:round;stroke-dasharray:0 8"/><path d="m475.1 155.4h137.8v38.9h-137.8z" fill="#1e1935" stroke="#1e1935" stroke-miterlimit="10" stroke-width="3"/><path d="m510 183.8h-4.2l-1.5-3.6h-7.7l-1.5 3.6h-4.2l8-18.6h3.2zm-12-6.7h5l-2.5-5.9zm25.4-8.5h-6.2v15.2h-3.8v-15.2h-6.2v-3.4h16.3v3.4zm17.9 0h-6.2v15.2h-3.8v-15.2h-6.3v-3.4h16.3zm14.2 0h-8.1v4h7v3.3h-7v4.5h8.1v3.4h-11.9v-18.6h11.9zm18.3 15.2h-3.2l-8.1-11.5v11.5h-3.8v-18.6h3.3l8.2 11.5v-11.5h3.8v18.6zm3.7-18.5h7.6c2.7 0 4.9.8 6.6 2.5s2.6 3.9 2.6 6.8-.9 5.1-2.6 6.8-3.9 2.5-6.6 2.5h-7.6zm3.8 3.2v12h3.8c3.3 0 5.4-2.1 5.4-6s-2-6-5.4-6z" fill="#fff"/><path d="m622.1 88.8 2-2m-1 11 10-10m-1 11 2-2" stroke="#fff" stroke-width="1.5"/></svg>