<svg viewBox="0 75 1102 150" xmlns="http://www.w3.org/2000/svg"><path d="m169.5 195.9h-142.5c-3.1 0-5.7-2.6-5.7-5.7v-105.1c0-3.1 2.6-5.7 5.7-5.7h142.5c3.1 0 5.7 2.6 5.7 5.7v105.1c0 3.1-2.6 5.7-5.7 5.7z" fill="none" stroke="#1e1935" stroke-miterlimit="10" stroke-width="3"/><path d="m52.8 115.5h-17.7c-3.1 0-5.7-2.6-5.7-5.7v-17.7c0-3.1 2.6-5.7 5.7-5.7h17.7c3.1 0 5.7 2.6 5.7 5.7v17.7c0 3.1-2.6 5.7-5.7 5.7zm0 36.4h-17.7c-3.1 0-5.7-2.6-5.7-5.7v-17.7c0-3.1 2.6-5.7 5.7-5.7h17.7c3.1 0 5.7 2.6 5.7 5.7v17.7c0 3.2-2.6 5.7-5.7 5.7zm1.5 36h-17.7c-3.1 0-5.7-2.6-5.7-5.7v-17.7c0-3.1 2.6-5.7 5.7-5.7h17.7c3.1 0 5.7 2.6 5.7 5.7v17.7c0 3.1-2.6 5.7-5.7 5.7zm34.8-36h-17.6c-3.1 0-5.7-2.6-5.7-5.7v-17.7c0-3.1 2.6-5.7 5.7-5.7h17.7c3.1 0 5.7 2.6 5.7 5.7v17.7c-.1 3.2-2.6 5.7-5.8 5.7zm0 36h-17.6c-3.1 0-5.7-2.6-5.7-5.7v-17.7c0-3.1 2.6-5.7 5.7-5.7h17.7c3.1 0 5.7 2.6 5.7 5.7v17.7c-.1 3.1-2.6 5.7-5.8 5.7zm35.8-36h-17.7c-3.1 0-5.7-2.6-5.7-5.7v-17.7c0-3.1 2.6-5.7 5.7-5.7h17.7c3.1 0 5.7 2.6 5.7 5.7v17.7c0 3.2-2.6 5.7-5.7 5.7zm0 36h-17.7c-3.1 0-5.7-2.6-5.7-5.7v-17.7c0-3.1 2.6-5.7 5.7-5.7h17.7c3.1 0 5.7 2.6 5.7 5.7v17.7c0 3.1-2.6 5.7-5.7 5.7zm-35.8-72.4h-17.6c-3.1 0-5.7-2.6-5.7-5.7v-17.7c0-3.1 2.6-5.7 5.7-5.7h17.7c3.1 0 5.7 2.6 5.7 5.7v17.7c-.1 3.1-2.6 5.7-5.8 5.7zm35.8 0h-17.7c-3.1 0-5.7-2.6-5.7-5.7v-17.7c0-3.1 2.6-5.7 5.7-5.7h17.7c3.1 0 5.7 2.6 5.7 5.7v17.7c0 3.1-2.6 5.7-5.7 5.7zm36.7 36.7h-17.7c-3.1 0-5.7-2.6-5.7-5.7v-17.7c0-3.1 2.6-5.7 5.7-5.7h17.7c3.1 0 5.7 2.6 5.7 5.7v17.7c0 3.1-2.6 5.7-5.7 5.7zm0 35.9h-17.7c-3.1 0-5.7-2.6-5.7-5.7v-17.7c0-3.1 2.6-5.7 5.7-5.7h17.7c3.1 0 5.7 2.6 5.7 5.7v17.7c0 3.2-2.6 5.7-5.7 5.7zm0-72.4h-17.7c-3.1 0-5.7-2.6-5.7-5.7v-17.6c0-3.1 2.6-5.7 5.7-5.7h17.7c3.1 0 5.7 2.6 5.7 5.7v17.6c0 3.2-2.6 5.7-5.7 5.7z" fill="#9c9ac1"/><path d="m334.6 195.9h-142.6c-3.1 0-5.7-2.6-5.7-5.7v-105.1c0-3.1 2.6-5.7 5.7-5.7h142.5c3.1 0 5.7 2.6 5.7 5.7v105.1c.1 3.1-2.5 5.7-5.6 5.7z" fill="none" stroke="#1e1935" stroke-miterlimit="10" stroke-width="3"/><path d="m217.8 115.5h-17.7c-3.1 0-5.7-2.6-5.7-5.7v-17.7c0-3.1 2.6-5.7 5.7-5.7h17.7c3.1 0 5.7 2.6 5.7 5.7v17.7c0 3.1-2.5 5.7-5.7 5.7zm0 36.4h-17.7c-3.1 0-5.7-2.6-5.7-5.7v-17.7c0-3.1 2.6-5.7 5.7-5.7h17.7c3.1 0 5.7 2.6 5.7 5.7v17.7c0 3.2-2.5 5.7-5.7 5.7zm1.5 36h-17.7c-3.1 0-5.7-2.6-5.7-5.7v-17.7c0-3.1 2.6-5.7 5.7-5.7h17.7c3.1 0 5.7 2.6 5.7 5.7v17.7c0 3.1-2.5 5.7-5.7 5.7zm34.9-36h-17.7c-3.1 0-5.7-2.6-5.7-5.7v-17.7c0-3.1 2.6-5.7 5.7-5.7h17.7c3.1 0 5.7 2.6 5.7 5.7v17.7c0 3.2-2.6 5.7-5.7 5.7zm0 36h-17.7c-3.1 0-5.7-2.6-5.7-5.7v-17.7c0-3.1 2.6-5.7 5.7-5.7h17.7c3.1 0 5.7 2.6 5.7 5.7v17.7c0 3.1-2.6 5.7-5.7 5.7zm35.8-36h-17.7c-3.1 0-5.7-2.6-5.7-5.7v-17.7c0-3.1 2.6-5.7 5.7-5.7h17.7c3.1 0 5.7 2.6 5.7 5.7v17.7c0 3.2-2.6 5.7-5.7 5.7zm0 36h-17.7c-3.1 0-5.7-2.6-5.7-5.7v-17.7c0-3.1 2.6-5.7 5.7-5.7h17.7c3.1 0 5.7 2.6 5.7 5.7v17.7c0 3.1-2.6 5.7-5.7 5.7zm-35.8-72.4h-17.7c-3.1 0-5.7-2.6-5.7-5.7v-17.7c0-3.1 2.6-5.7 5.7-5.7h17.7c3.1 0 5.7 2.6 5.7 5.7v17.7c0 3.1-2.6 5.7-5.7 5.7zm35.8 0h-17.7c-3.1 0-5.7-2.6-5.7-5.7v-17.7c0-3.1 2.6-5.7 5.7-5.7h17.7c3.1 0 5.7 2.6 5.7 5.7v17.7c0 3.1-2.6 5.7-5.7 5.7zm36.7 36.7h-17.7c-3.1 0-5.7-2.6-5.7-5.7v-17.7c0-3.1 2.6-5.7 5.7-5.7h17.7c3.1 0 5.7 2.6 5.7 5.7v17.7c0 3.1-2.6 5.7-5.7 5.7zm0 35.9h-17.7c-3.1 0-5.7-2.6-5.7-5.7v-17.7c0-3.1 2.6-5.7 5.7-5.7h17.7c3.1 0 5.7 2.6 5.7 5.7v17.7c0 3.2-2.6 5.7-5.7 5.7zm0-72.4h-17.7c-3.1 0-5.7-2.6-5.7-5.7v-17.6c0-3.1 2.6-5.7 5.7-5.7h17.7c3.1 0 5.7 2.6 5.7 5.7v17.6c0 3.2-2.6 5.7-5.7 5.7z" fill="#9c9ac1"/><path d="m1074.8 167.6h-298.4c-6.6 0-12-5.4-12-12v-35.6c0-6.6 5.4-12 12-12h298.4c6.6 0 12 5.4 12 12v35.6c0 6.6-5.4 12-12 12z" fill="none" stroke="#1e1935" stroke-miterlimit="10" stroke-width="3"/><path d="m804.4 158.4h-17.5c-6.6 0-12-5.4-12-12v-17.5c0-6.6 5.4-12 12-12h17.5c6.6 0 12 5.4 12 12v17.5c0 6.6-5.4 12-12 12zm51.9 0h-17.5c-6.6 0-12-5.4-12-12v-17.5c0-6.6 5.4-12 12-12h17.5c6.6 0 12 5.4 12 12v17.5c0 6.6-5.4 12-12 12zm53.3 0h-17.6c-6.6 0-12-5.4-12-12v-17.5c0-6.6 5.4-12 12-12h17.5c6.6 0 12 5.4 12 12v17.5c.1 6.6-5.3 12-11.9 12zm52.9 0h-17.5c-6.6 0-12-5.4-12-12v-17.5c0-6.6 5.4-12 12-12h17.5c6.6 0 12 5.4 12 12v17.5c0 6.6-5.4 12-12 12zm50-.6h-17.5c-6.6 0-12-5.4-12-12v-17.5c0-6.6 5.4-12 12-12h17.5c6.6 0 12 5.4 12 12v17.5c0 6.6-5.4 12-12 12zm51.7.6h-17.5c-6.6 0-12-5.4-12-12v-17.5c0-6.6 5.4-12 12-12h17.5c6.6 0 12 5.4 12 12v17.5c0 6.6-5.4 12-12 12z" fill="#3e3565"/><path d="m722.8 125.4c.4 0 .8.1 1.1.4l10.7 10.7c.3.3.4.7.4 1.1s-.1.8-.4 1.1l-10.7 10.7c-.3.3-.7.4-1.1.4s-.8-.1-1.1-.4-.4-.7-.4-1.1.1-.8.4-1.1l8.1-8.1s1.5-1.6 0-3.1l-8.1-8.1c-.3-.3-.4-.7-.4-1.1s.1-.8.4-1.1c.3-.2.7-.3 1.1-.3z" fill="#1e1935"/><path d="m453 138h-87m349 0h-87" style="fill:none;stroke:#1e1935;stroke-width:4;stroke-miterlimit:10;stroke-linecap:round;stroke-linejoin:round;stroke-dasharray:0 8"/><path d="m476 117.6h137.8v38.9h-137.8z" fill="#1e1935" stroke="#1e1935" stroke-miterlimit="10" stroke-width="3"/><path d="m511 146h-4.2l-1.5-3.6h-7.7l-1.6 3.6h-4.2l8-18.6h3.2zm-12.1-6.7h5l-2.5-5.9zm25.4-8.5h-6.2v15.2h-3.8v-15.2h-6.2v-3.4h16.3v3.4zm18 0h-6.2v15.2h-3.8v-15.2h-6.3v-3.4h16.3zm14.2 0h-8.1v4h7v3.3h-7v4.5h8.1v3.4h-11.9v-18.6h11.9zm18.3 15.2h-3.2l-8.1-11.5v11.5h-3.8v-18.6h3.3l8.2 11.5v-11.5h3.8v18.6zm3.7-18.6h7.6c2.7 0 4.9.8 6.6 2.5s2.6 3.9 2.6 6.8-.9 5.1-2.6 6.8-3.9 2.5-6.6 2.5h-7.6zm3.8 3.3v12h3.8c3.3 0 5.4-2.1 5.4-6s-2-6-5.4-6z" fill="#fff"/><path d="m623 51 2-2m-1 11 10-10m-1 11 2-2" stroke="#fff" stroke-width="1.5"/></svg>