<svg viewBox="0 75 1102 150" xmlns="http://www.w3.org/2000/svg"><path d="m697.1 162.3h-26.9c-6.6 0-12-5.4-12-12v-26.9c0-6.6 5.4-12 12-12h26.9c6.6 0 12 5.4 12 12v26.9c0 6.6-5.4 12-12 12zm64.9 0h-26.9c-6.6 0-12-5.4-12-12v-26.9c0-6.6 5.4-12 12-12h26.9c6.6 0 12 5.4 12 12v26.9c0 6.6-5.4 12-12 12zm65.7.1h-26.9c-6.6 0-12-5.4-12-12v-26.9c0-6.6 5.4-12 12-12h26.9c6.6 0 12 5.4 12 12v26.9c0 6.6-5.4 12-12 12z" fill="#ddd"/><path d="m96.2 167.1h-38c-6.6 0-12-5.4-12-12v-38c0-6.6 5.4-12 12-12h38c6.6 0 12 5.4 12 12v38c0 6.6-5.4 12-12 12z" fill="none" stroke="#1e1935" stroke-miterlimit="10" stroke-width="3"/><path d="m70.4 143.6h-3.4v-16.5h3.4zm3.3-16.4h6.8c2.4 0 4.4.7 5.9 2.2s2.3 3.5 2.3 6-.8 4.6-2.3 6c-1.5 1.5-3.5 2.2-5.9 2.2h-6.8zm3.4 2.9v10.6h3.4c2.9 0 4.8-1.9 4.8-5.3 0-3.5-1.8-5.3-4.8-5.3z"/><path d="m843 173.5h-315.5c-6.6 0-12-5.4-12-12v-49.1c0-6.6 5.4-12 12-12h315.5c6.6 0 12 5.4 12 12v49.1c0 6.6-5.4 12-12 12z" fill="none" stroke="#1e1935" stroke-miterlimit="10" stroke-width="3"/><path d="m567.3 162.3h-26.9c-6.6 0-12-5.4-12-12v-26.9c0-6.6 5.4-12 12-12h26.9c6.6 0 12 5.4 12 12v26.9c0 6.6-5.4 12-12 12zm63.6 0h-26.9c-6.6 0-12-5.4-12-12v-26.9c0-6.6 5.4-12 12-12h26.9c6.6 0 12 5.4 12 12v26.9c0 6.6-5.4 12-12 12z" fill="#ddd"/><path d="m485.9 124.3c.4 0 .8.1 1.1.4l10.7 10.7c.3.3.4.7.4 1.1s-.1.8-.4 1.1l-10.7 10.8c-.3.3-.7.4-1.1.4s-.8-.1-1.1-.4-.4-.7-.4-1.1.1-.8.4-1.1l8.1-8.1c1.5-1.5 1.5-1.6 0-3.1l-8.1-8.1c-.3-.3-.4-.7-.4-1.1s.1-.8.4-1.1c.3-.2.6-.4 1.1-.4z" fill="#1e1935"/><path d="m215 137h-87m350 0h-87" style="fill:none;stroke:#1e1935;stroke-width:4;stroke-miterlimit:10;stroke-linecap:round;stroke-linejoin:round;stroke-dasharray:0 8"/><path d="m239.1 116.5h137.8v38.9h-137.8z" fill="#1e1935" stroke="#1e1935" stroke-miterlimit="10" stroke-width="3"/><path d="m275.2 129.7h-8.1v4h7v3.3h-7v4.5h8.1v3.4h-11.9v-18.6h11.9zm23.4 15.2h-3.8v-10l-5.1 9.8h-2.5l-5.1-9.8v10h-3.8v-18.6h3.4l6.8 12.8 6.8-12.8h3.4v18.6zm3.7-18.5h7.8c3.5 0 5.8 1.8 5.8 5.2 0 1.6-.6 2.8-1.8 3.6 1.5.6 2.6 2.1 2.6 4.3 0 3.5-2.4 5.4-6 5.4h-8.3v-18.5zm3.9 3.3v4.1h3.7c1.4 0 2.1-.7 2.1-2 0-1.4-.9-2.1-2.3-2.1zm0 7.3v4.5h4c1.7 0 2.5-.7 2.5-2.2s-1-2.3-2.5-2.3zm25.6-7.3h-8.1v4h7v3.3h-7v4.5h8.1v3.4h-11.9v-18.6h11.9zm3-3.3h7.6c2.7 0 4.9.8 6.6 2.5s2.6 3.9 2.6 6.8-.9 5.1-2.6 6.8-3.9 2.5-6.6 2.5h-7.6zm3.8 3.2v12h3.8c3.3 0 5.4-2.1 5.4-6s-2-6-5.4-6z" fill="#fff"/></svg>