<svg viewBox="0 0 1102 277" xmlns="http://www.w3.org/2000/svg"><path d="m1074 259.4h-299.3c-6.6 0-12-5.4-12-12v-220.7c0-6.6 5.4-12 12-12h299.3c6.6 0 12 5.4 12 12v220.7c0 6.6-5.4 12-12 12z" fill="none" stroke="#1e1935" stroke-miterlimit="10" stroke-width="3"/><path d="m828.8 90.6h-37.1c-6.6 0-12-5.4-12-12v-37.1c0-6.6 5.4-12 12-12h37.1c6.6 0 12 5.4 12 12v37.1c0 6.6-5.4 12-12 12zm0 76.5h-37.1c-6.6 0-12-5.4-12-12v-37.1c0-6.6 5.4-12 12-12h37.1c6.6 0 12 5.4 12 12v37.1c0 6.6-5.4 12-12 12zm3.2 75.5h-37.1c-6.6 0-12-5.4-12-12v-37.1c0-6.6 5.4-12 12-12h37.1c6.6 0 12 5.4 12 12v37.1c0 6.6-5.4 12-12 12zm73.2-75.5h-37.1c-6.6 0-12-5.4-12-12v-37.1c0-6.6 5.4-12 12-12h37.1c6.6 0 12 5.4 12 12v37.1c0 6.6-5.4 12-12 12zm0 75.5h-37.1c-6.6 0-12-5.4-12-12v-37.1c0-6.6 5.4-12 12-12h37.1c6.6 0 12 5.4 12 12v37.1c0 6.6-5.4 12-12 12zm75.2-75.5h-37.1c-6.6 0-12-5.4-12-12v-37.1c0-6.6 5.4-12 12-12h37.1c6.6 0 12 5.4 12 12v37.1c0 6.6-5.4 12-12 12zm0 75.5h-37.1c-6.6 0-12-5.4-12-12v-37.1c0-6.6 5.4-12 12-12h37.1c6.6 0 12 5.4 12 12v37.1c0 6.6-5.4 12-12 12zm-75.2-152h-37.1c-6.6 0-12-5.4-12-12v-37.1c0-6.6 5.4-12 12-12h37.1c6.6 0 12 5.4 12 12v37.1c0 6.6-5.4 12-12 12zm75.2 0h-37.1c-6.6 0-12-5.4-12-12v-37.1c0-6.6 5.4-12 12-12h37.1c6.6 0 12 5.4 12 12v37.1c0 6.6-5.4 12-12 12zm77 77h-37.1c-6.6 0-12-5.4-12-12v-37.1c0-6.6 5.4-12 12-12h37.1c6.6 0 12 5.4 12 12v37.1c0 6.6-5.4 12-12 12zm0 75.5h-37.1c-6.6 0-12-5.4-12-12v-37.1c0-6.6 5.4-12 12-12h37.1c6.6 0 12 5.4 12 12v37.1c0 6.6-5.4 12-12 12zm0-152h-37.1c-6.6 0-12-5.4-12-12v-37.1c0-6.6 5.4-12 12-12h37.1c6.6 0 12 5.4 12 12v37.1c0 6.6-5.4 12-12 12z" fill="#9c9ac1"/><path d="m334.9 79.4h-315.5c-6.6 0-12-5.4-12-12v-49c0-6.6 5.4-12 12-12h315.5c6.6 0 12 5.4 12 12v49.1c0 6.5-5.4 11.9-12 11.9z" fill="none" stroke="#1e1935" stroke-miterlimit="10" stroke-width="3"/><path d="m59.2 68.2h-26.9c-6.6 0-12-5.4-12-12v-26.9c0-6.6 5.4-12 12-12h26.9c6.6 0 12 5.4 12 12v26.9c0 6.6-5.4 12-12 12zm63.6 0h-26.9c-6.6 0-12-5.4-12-12v-26.9c0-6.6 5.4-12 12-12h26.9c6.6 0 12 5.4 12 12v26.9c0 6.6-5.4 12-12 12zm65.3 0h-26.9c-6.6 0-12-5.4-12-12v-26.9c0-6.6 5.4-12 12-12h26.9c6.6 0 12 5.4 12 12v26.9c0 6.6-5.4 12-12 12zm64.8 0h-26.9c-6.6 0-12-5.4-12-12v-26.9c0-6.6 5.4-12 12-12h26.9c6.6 0 12 5.4 12 12v26.9c0 6.6-5.4 12-12 12zm65.7.2h-26.9c-6.6 0-12-5.4-12-12v-26.9c0-6.6 5.4-12 12-12h26.9c6.6 0 12 5.4 12 12v26.9c0 6.6-5.4 12-12 12z" fill="#ddd"/><path d="m334.9 173.6h-315.5c-6.6 0-12-5.4-12-12v-49.1c0-6.6 5.4-12 12-12h315.5c6.6 0 12 5.4 12 12v49.1c0 6.6-5.4 12-12 12z" fill="none" stroke="#1e1935" stroke-miterlimit="10" stroke-width="3"/><path d="m59.2 162.4h-26.9c-6.6 0-12-5.4-12-12v-26.9c0-6.6 5.4-12 12-12h26.9c6.6 0 12 5.4 12 12v26.9c0 6.6-5.4 12-12 12zm63.6 0h-26.9c-6.6 0-12-5.4-12-12v-26.9c0-6.6 5.4-12 12-12h26.9c6.6 0 12 5.4 12 12v26.9c0 6.6-5.4 12-12 12zm65.3 0h-26.9c-6.6 0-12-5.4-12-12v-26.9c0-6.6 5.4-12 12-12h26.9c6.6 0 12 5.4 12 12v26.9c0 6.6-5.4 12-12 12zm64.8 0h-26.9c-6.6 0-12-5.4-12-12v-26.9c0-6.6 5.4-12 12-12h26.9c6.6 0 12 5.4 12 12v26.9c0 6.6-5.4 12-12 12zm65.7.1h-26.9c-6.6 0-12-5.4-12-12v-26.9c0-6.6 5.4-12 12-12h26.9c6.6 0 12 5.4 12 12v26.9c0 6.6-5.4 12-12 12z" fill="#ddd"/><path d="m334.9 263.9h-315.5c-6.6 0-12-5.4-12-12v-49.1c0-6.6 5.4-12 12-12h315.5c6.6 0 12 5.4 12 12v49.1c0 6.6-5.4 12-12 12z" fill="none" stroke="#1e1935" stroke-miterlimit="10" stroke-width="3"/><path d="m59.2 252.7h-26.9c-6.6 0-12-5.4-12-12v-26.9c0-6.6 5.4-12 12-12h26.9c6.6 0 12 5.4 12 12v26.9c0 6.6-5.4 12-12 12zm63.6 0h-26.9c-6.6 0-12-5.4-12-12v-26.9c0-6.6 5.4-12 12-12h26.9c6.6 0 12 5.4 12 12v26.9c0 6.6-5.4 12-12 12zm65.3 0h-26.9c-6.6 0-12-5.4-12-12v-26.9c0-6.6 5.4-12 12-12h26.9c6.6 0 12 5.4 12 12v26.9c0 6.6-5.4 12-12 12zm64.8 0h-26.9c-6.6 0-12-5.4-12-12v-26.9c0-6.6 5.4-12 12-12h26.9c6.6 0 12 5.4 12 12v26.9c0 6.6-5.4 12-12 12zm65.7.1h-26.9c-6.6 0-12-5.4-12-12v-26.8c0-6.6 5.4-12 12-12h26.9c6.6 0 12 5.4 12 12v26.9c0 6.5-5.4 11.9-12 11.9z" fill="#ddd"/><path d="m724.8 125.5c.4 0 .8.1 1.1.4l10.7 10.7c.3.3.4.7.4 1.1s-.1.8-.4 1.1l-10.7 10.7c-.3.3-.7.4-1.1.4s-.8-.1-1.1-.4-.4-.7-.4-1.1.1-.8.4-1.1l8.1-8.1s1.5-1.6 0-3.1l-8.1-8.1c-.3-.3-.4-.7-.4-1.1s.1-.8.4-1.1.6-.3 1.1-.3z" fill="#1e1935"/><path d="m455 138h-87m349 0h-87" style="fill:none;stroke:#1e1935;stroke-width:4;stroke-miterlimit:10;stroke-linecap:round;stroke-linejoin:round;stroke-dasharray:0 8"/><path d="m477.9 117.6h137.8v38.9h-137.8z" fill="#1e1935" stroke="#1e1935" stroke-miterlimit="10" stroke-width="3"/><path d="m504.3 130.9h-8.1v4h7v3.3h-7v4.5h8.1v3.4h-11.9v-18.6h11.9zm18.3 15.1h-3.2l-8.1-11.5v11.5h-3.8v-18.6h3.3l8.2 11.5v-11.5h3.8v18.6zm18.3-16.9c1.6 1.3 2.6 3 3 5.2l-4 .3c-.5-2.6-2.4-4-4.9-4-1.6 0-3 .6-3.9 1.7-1 1.1-1.5 2.6-1.5 4.5 0 2 .5 3.5 1.5 4.5 1 1.1 2.3 1.6 3.9 1.6 2.6 0 4.4-1.4 4.9-3.9l4 .3c-.3 2.2-1.3 3.8-3 5.1-1.6 1.3-3.6 1.9-5.9 1.9-2.8 0-5.1-.9-6.8-2.6s-2.6-4-2.6-7 .9-5.3 2.6-7 4-2.6 6.8-2.6c2.3.1 4.3.8 5.9 2zm21.8.7c1.8 1.7 2.7 4 2.7 6.9s-.9 5.2-2.7 6.9-4.1 2.6-6.9 2.6-5.1-.9-6.9-2.6c-1.8-1.8-2.7-4.1-2.7-6.9s.9-5.2 2.7-6.9c1.8-1.8 4.1-2.6 6.9-2.6s5.1.9 6.9 2.6zm-11.1 2.5c-1.1 1.1-1.6 2.6-1.6 4.5s.5 3.4 1.6 4.5 2.5 1.7 4.2 1.7 3.1-.5 4.1-1.7c1.1-1.1 1.6-2.6 1.6-4.5s-.5-3.4-1.6-4.5c-1-1.1-2.4-1.7-4.1-1.7s-3.1.6-4.2 1.7zm16.9-4.8h7.6c2.7 0 4.9.8 6.6 2.5s2.6 3.9 2.6 6.8-.9 5.1-2.6 6.8-3.9 2.5-6.6 2.5h-7.6zm3.8 3.3v12h3.8c3.3 0 5.4-2.1 5.4-6s-2-6-5.4-6zm28 .1h-8.1v4h7v3.3h-7v4.5h8.1v3.4h-11.9v-18.6h11.9z" fill="#fff"/></svg>